<?xml version="1.0" encoding="UTF-8" standalone="no"?>
<svg
   id="king-black"
   width="320"
   height="320"
   viewBox="0 0 320 320"
   preserveAspectRatio="xMidYMid meet"
   rendering="crispEdges"
   version="1.1"
   sodipodi:docname="king-black.svg"
   inkscape:version="1.4.2 (f4327f4, 2025-05-13)"
   xmlns:inkscape="http://www.inkscape.org/namespaces/inkscape"
   xmlns:sodipodi="http://sodipodi.sourceforge.net/DTD/sodipodi-0.dtd"
   xmlns="http://www.w3.org/2000/svg"
   xmlns:svg="http://www.w3.org/2000/svg">
  <defs
     id="defs1" />
  <sodipodi:namedview
     id="namedview1"
     pagecolor="#ffffff"
     bordercolor="#000000"
     borderopacity="0.25"
     inkscape:showpageshadow="2"
     inkscape:pageopacity="0.0"
     inkscape:pagecheckerboard="0"
     inkscape:deskcolor="#d1d1d1"
     inkscape:zoom="2.996875"
     inkscape:cx="160"
     inkscape:cy="160"
     inkscape:window-width="1920"
     inkscape:window-height="1051"
     inkscape:window-x="-9"
     inkscape:window-y="-9"
     inkscape:window-maximized="1"
     inkscape:current-layer="king-black" />
  <path
     d="m 140,70 v 10 10 h 10 v 10 h 10 10 V 90 H 160 V 80 h 10 V 70 h -10 -10 z m 30,10 v 10 h 10 V 80 Z m -90,20 v 10 h 10 v -10 z m 10,10 v 10 H 80 v 10 H 70 v 10 h 10 v 10 H 70 v 10 h 10 v 10 H 70 v 10 h 10 v 10 h 10 v 10 h 10 v 10 h 10 v 10 h 10 v 10 h 10 10 v -10 h -10 v -10 h -10 v -10 -10 h -10 v -10 -10 -10 -10 h 10 v -10 -10 h 10 10 v -10 h -10 v -10 h -10 -10 v -10 h -10 v 10 z m 50,20 v 10 h 10 v -10 z m 10,0 h 10 v 10 h -10 v 10 h 10 v 10 h -10 v 10 h -10 v 10 h 10 v 10 h 10 v 10 h -10 v 10 h 10 v 10 h 10 10 v -10 h 10 v -10 -10 h 10 v -10 -10 -10 -10 h -10 v -10 h -10 v -10 h -10 v -10 h -10 -10 z m 30,0 h 10 10 v 10 10 h 10 v 10 10 10 10 h -10 v 10 10 h -10 v 10 h -10 v 10 h 10 10 10 10 10 10 v -10 h 10 v -10 h 10 v -10 h 10 v -10 h 10 v -10 h 10 v -10 -10 -10 -10 h -10 -10 v 10 h 10 v 10 h -10 v 10 h -10 v -10 h -10 v 10 h -10 v -10 h -10 v -10 h 10 v -10 h -10 v -10 h 10 v -10 h 10 v 10 h 10 v -10 h 10 v -10 h -10 -10 v -10 h -10 -10 -10 -10 v 10 h -10 -10 v 10 h -10 z m 90,-10 v 10 h 10 v -10 z m 0,10 h -10 v 10 h 10 z m -10,10 h -10 v 10 h 10 z m 0,10 v 10 h 10 v -10 z m -10,0 h -10 v 10 h 10 z m 0,-10 v -10 h -10 v 10 z m -90,80 h -10 v 10 h 10 z m -10,0 v -10 h -10 v 10 z m -10,-10 v -10 h -10 v 10 z m 0,-10 h 10 v -10 h -10 z m 0,-10 v -10 h -10 v 10 z m -10,-10 v -10 h -10 v 10 z m 0,-10 h 10 v -10 h -10 z m 0,-10 v -10 h -10 v 10 z m 0,-10 h 10 v -10 h -10 z m 10,0 v 10 h 10 v -10 z m -30,70 h -10 v 10 h 10 z m -10,0 V 210 H 90 v 10 z m -10,0 H 80 v 10 h 10 z m -10,0 V 210 H 70 v 10 z M 70,210 V 200 H 60 v 10 z M 60,200 V 190 H 50 v 10 z M 50,190 V 180 H 40 v 10 z M 40,180 V 170 H 30 v 10 z m 0,-10 H 50 V 160 H 40 Z m 0,-10 V 150 H 30 v 10 z m 0,-10 H 50 V 140 H 40 Z M 50,140 H 60 V 130 H 50 Z m 0,-10 V 120 H 40 v 10 z m 0,-10 H 60 V 110 H 50 Z m 10,0 v 10 h 10 v -10 z m 10,0 H 80 V 110 H 70 Z m -10,20 v 10 h 10 v -10 z m 0,10 H 50 v 10 h 10 z m 0,10 v 10 h 10 v -10 z m 0,10 H 50 v 10 h 10 z m 0,10 v 10 h 10 v -10 z m 10,10 v 10 h 10 v -10 z m 10,10 v 10 h 10 v -10 z m 10,40 v 10 h 10 v -10 z m 10,10 v 10 h 10 v -10 z m 10,0 h 10 v -10 h -10 z m 10,0 v 10 h 10 v -10 z m 10,0 h 10 v -10 h -10 z m 10,0 v 10 h 10 v -10 z m 10,0 h 10 v -10 h -10 z m 10,0 v 10 h 10 v -10 z m 10,0 h 10 v 10 h 10 v 10 h 10 v 10 h 10 10 10 10 v -10 -10 -10 -10 h -10 -10 -10 -10 -10 -10 -10 z m 20,20 h -10 v 10 h 10 z m -10,0 v -10 h -10 v 10 z m -10,0 h -10 v 10 h 10 z m -10,0 v -10 h -10 v 10 z m -10,0 h -10 v 10 h 10 z m -10,0 v -10 h -10 v 10 z m -10,0 h -10 v 10 h 10 z m -10,0 v -10 h -10 v 10 z m -10,0 h -10 v 10 h 10 z m -10,0 V 260 H 90 v 10 z m -10,0 H 80 v 10 h 10 z m 0,-10 V 250 H 80 v 10 z"
     style="opacity:1;fill:#313131;shape-rendering:crispEdges"
     id="path4" />
  <path
     d="m 170,70 v 10 h 10 V 70 Z m 0,10 h -10 v 10 h 10 z m 70,40 v 10 h 10 v -10 z m 10,10 v 10 h 10 v -10 z m 10,0 h 10 v -10 h -10 z m 10,0 v 10 h 10 v -10 z m 0,10 h -10 v 10 h 10 z m 0,10 v 10 h 10 v -10 z m 0,10 h -10 v 10 h 10 z m -10,0 v -10 h -10 v 10 z m -10,0 h -10 v 10 h 10 z m -10,0 v -10 h -10 v 10 z m 0,-10 h 10 v -10 h -10 z m 0,-10 v -10 h -10 v 10 z"
     style="opacity:1;fill:#676767;shape-rendering:crispEdges"
     id="path1" />
  <path
     d="m 140,60 v 10 h 10 10 10 10 V 60 h -10 -10 -10 z m 40,10 v 10 10 h 10 V 80 70 Z m 0,20 h -10 v 10 h 10 z m -10,10 h -10 -10 v 10 10 h 10 10 v -10 z m 0,20 v 10 h 10 v -10 z m 10,0 h 10 v -10 h -10 z m 10,-10 h 10 10 v -10 h -10 -10 z m 20,-10 h 10 10 10 10 V 90 h -10 -10 -10 -10 z m 40,0 v 10 h 10 10 v -10 h -10 z m 20,10 v 10 h 10 v -10 z m 10,10 v 10 10 h 10 v -10 -10 z m 10,20 v 10 10 10 10 h 10 v -10 -10 -10 -10 z m 0,40 h -10 v 10 h -10 v 10 h -10 v 10 h -10 v 10 h -10 v 10 h -10 -10 -10 -10 -10 -10 v -10 h -10 -10 v 10 h -10 v -10 h -10 v 10 h -10 -10 v -10 h -10 v 10 H 100 V 220 H 90 v 10 H 80 V 220 H 70 V 210 H 60 V 200 H 50 V 190 H 40 V 180 H 30 v 10 10 h 10 v 10 h 10 v 10 h 10 v 10 h 10 v 10 10 10 10 10 10 h 10 10 10 10 10 10 10 10 10 10 10 10 10 10 10 10 10 10 v -10 -10 -10 -10 -10 -10 h 10 v -10 h 10 v -10 h 10 v -10 h 10 V 190 Z M 30,180 V 170 H 40 V 160 H 30 V 150 H 40 V 140 H 50 V 130 H 40 V 120 H 30 v 10 10 H 20 v 10 10 10 10 z M 40,120 H 50 V 110 H 40 Z m 10,-10 h 10 v 10 h 10 v -10 h 10 v -10 h 10 v 10 h 10 v -10 h 10 V 90 H 100 90 80 70 v 10 H 60 50 Z m 60,-10 v 10 h 10 10 v -10 h -10 z m 20,10 v 10 h 10 v -10 z m 10,10 v 10 h 10 v -10 z m 10,10 v 10 h 10 v -10 z m 0,10 h -10 v 10 h 10 z m 0,10 v 10 h 10 v -10 z m 0,10 h -10 v 10 h 10 z m -10,10 h -10 v 10 h 10 z m 0,10 v 10 h 10 v -10 z m 10,10 v 10 h 10 v -10 z m 0,10 h -10 v 10 h 10 z m 0,10 v 10 h 10 v -10 z m -10,0 h -10 v 10 h 10 z m -10,0 v -10 h 10 v -10 h -10 v -10 h -10 v -10 h 10 v -10 h -10 v -10 h -10 v 10 10 10 10 h 10 v 10 10 z m -10,-60 h 10 v -10 h 10 v -10 h -10 -10 v 10 z m 10,0 v 10 h 10 V 150 Z M 90,110 H 80 v 10 H 90 Z M 80,120 H 70 v 10 H 80 Z M 70,130 H 60 v 10 h 10 z m 0,10 v 10 h 10 v -10 z m 0,10 H 60 v 10 h 10 z m 0,10 v 10 h 10 v -10 z m 0,10 H 60 v 10 h 10 z m 0,10 v 10 h 10 v -10 z m 10,10 v 10 h 10 v -10 z m 10,10 v 10 h 10 v -10 z m 10,10 v 10 h 10 v -10 z m -10,0 H 80 v 10 h 10 z m -10,0 V 200 H 70 v 10 z M 70,200 V 190 H 60 v 10 z M 60,190 V 180 H 50 v 10 z M 50,180 V 170 H 40 v 10 z m 0,-10 H 60 V 160 H 50 Z m 0,-10 V 150 H 40 v 10 z m 0,-10 H 60 V 140 H 50 Z M 60,130 V 120 H 50 v 10 z m 120,90 h 10 v -10 h -10 z m 10,-10 h 10 v -10 -10 h -10 v 10 z m 10,-20 h 10 v -10 -10 -10 -10 h -10 v 10 10 10 z m 0,-40 v -10 -10 h -10 -10 v 10 h 10 v 10 z M 150,100 V 90 h -10 v 10 z M 140,90 V 80 70 H 130 V 80 90 Z M 90,240 h 10 v 10 h 10 v -10 h 10 v 10 h 10 v -10 h 10 v 10 h 10 v -10 h 10 v 10 h 10 v -10 h 10 10 10 10 10 10 10 v 10 10 10 10 h -10 -10 -10 -10 v -10 h -10 v 10 h -10 v -10 h -10 v 10 h -10 v -10 h -10 v 10 h -10 v -10 h -10 v 10 h -10 v -10 h -10 v 10 H 100 V 270 H 90 v 10 H 80 V 270 H 90 V 260 H 80 v -10 h 10 z m 0,10 v 10 h 10 v -10 z m 10,10 v 10 h 10 v -10 z m 10,0 h 10 v -10 h -10 z m 10,0 v 10 h 10 v -10 z m 10,0 h 10 v -10 h -10 z m 10,0 v 10 h 10 v -10 z m 10,0 h 10 v -10 h -10 z m 10,0 v 10 h 10 v -10 z m 10,0 h 10 v -10 h -10 z m 10,0 v 10 h 10 v -10 z"
     style="opacity:1;shape-rendering:crispEdges"
     id="path3" />
  <path
     d="m 140,50 v 10 h 10 10 10 10 V 50 h -10 -10 -10 z m 40,10 v 10 h 10 V 60 Z m 10,10 v 10 10 h -10 v 10 h -10 v 10 10 h 10 v -10 h 10 v -10 h 10 10 V 90 H 200 V 80 70 Z m 20,20 h 10 10 10 10 V 80 h -10 -10 -10 -10 z m 40,0 v 10 h 10 10 V 90 h -10 z m 20,10 v 10 h 10 v -10 z m 10,10 v 10 h 10 v -10 z m 10,10 v 10 10 h 10 v -10 -10 z m 10,20 v 10 10 10 10 h 10 v -10 -10 -10 -10 z m 0,40 h -10 v 10 10 h 10 v -10 z m -10,20 h -10 v 10 h 10 z m -10,10 h -10 v 10 h 10 z m -10,10 h -10 v 10 h 10 z m -10,10 h -10 v 10 10 10 10 10 10 H 240 230 220 210 200 190 180 170 160 150 140 130 120 110 100 90 80 70 V 280 270 260 250 240 230 H 60 v 10 10 10 10 10 10 10 h 10 10 10 10 10 10 10 10 10 10 10 10 10 10 10 10 10 10 10 10 V 290 280 270 260 250 240 Z M 60,230 V 220 H 50 v 10 z M 50,220 V 210 H 40 v 10 z M 40,210 V 200 H 30 v 10 z M 30,200 V 190 180 H 20 v 10 10 z M 20,180 V 170 160 150 140 H 10 v 10 10 10 10 z m 0,-40 H 30 V 130 120 H 20 v 10 z M 30,120 H 40 V 110 H 30 Z M 40,110 H 50 V 100 H 40 Z M 50,100 H 60 70 V 90 H 60 50 Z M 70,90 h 10 10 10 10 V 80 H 100 90 80 70 Z m 40,0 v 10 h 10 10 v 10 h 10 v 10 h 10 V 110 100 H 140 V 90 H 130 V 80 70 h -10 v 10 10 z m 20,-20 h 10 V 60 h -10 z"
     style="opacity:1;fill:#ffffff;shape-rendering:crispEdges"
     id="path2" />
</svg>
