<?xml version="1.0" encoding="UTF-8" standalone="no"?>
<svg
   id="knight-black"
   width="320"
   height="320"
   viewBox="0 0 320 320"
   preserveAspectRatio="xMidYMid meet"
   rendering="crispEdges"
   version="1.1"
   sodipodi:docname="knight-black.svg"
   inkscape:version="1.4.2 (f4327f4, 2025-05-13)"
   xmlns:inkscape="http://www.inkscape.org/namespaces/inkscape"
   xmlns:sodipodi="http://sodipodi.sourceforge.net/DTD/sodipodi-0.dtd"
   xmlns="http://www.w3.org/2000/svg"
   xmlns:svg="http://www.w3.org/2000/svg">
  <defs
     id="defs1" />
  <sodipodi:namedview
     id="namedview1"
     pagecolor="#ffffff"
     bordercolor="#000000"
     borderopacity="0.25"
     inkscape:showpageshadow="2"
     inkscape:pageopacity="0.0"
     inkscape:pagecheckerboard="0"
     inkscape:deskcolor="#d1d1d1"
     inkscape:zoom="2.996875"
     inkscape:cx="132.30448"
     inkscape:cy="127.63295"
     inkscape:window-width="1920"
     inkscape:window-height="1051"
     inkscape:window-x="-9"
     inkscape:window-y="-9"
     inkscape:window-maximized="1"
     inkscape:current-layer="knight-black" />
  <path
     d="m 130,40 v 10 h 10 V 40 Z m 40,0 v 10 h 10 V 40 Z m -10,20 v 10 h 10 V 60 Z m 10,10 v 10 h 10 V 70 Z m 10,0 h 10 V 60 h -10 z m 10,0 v 10 h 10 V 70 Z m 10,0 h 10 V 60 h -10 z m 10,0 v 10 h 10 V 70 Z m 20,10 v 10 h 10 V 80 Z m 10,10 v 10 h 10 V 90 Z m 0,10 h -10 v 10 h 10 z m 0,10 v 10 h 10 v -10 z m 0,10 h -10 v 10 h 10 z m -10,0 v -10 h -10 v 10 z m -10,0 h -10 v 10 h 10 z m 0,-10 v -10 h -10 v 10 z m 0,-10 h 10 V 90 h -10 z m -70,40 v 10 h 10 v -10 z m 10,10 v 10 h 10 v -10 z m 10,0 h 10 v -10 h -10 z m 10,0 v 10 h 10 v -10 z m 10,10 v 10 h 10 v -10 z m 10,10 v 10 h 10 v -10 z m 10,10 v 10 h 10 v -10 z m 10,0 h 10 v -10 h -10 z m 0,10 v 10 h 10 v -10 z m -10,0 h -10 v 10 h 10 z m -10,0 v -10 h -10 v 10 z m -20,-30 h -10 v 10 h 10 z"
     style="opacity:1;fill:#676767;shape-rendering:crispEdges"
     id="path4" />
  <path
     d="m 130,20 v 10 h 10 V 20 Z m 0,10 h -10 v 10 h 10 z M 120,40 H 110 V 50 H 100 90 80 V 60 H 70 V 70 80 H 60 v 10 10 10 10 10 10 10 10 h 10 v 10 h 10 v 10 h 10 v 10 10 10 10 h 10 10 v 10 H 100 90 80 70 v 10 10 10 10 10 10 h 10 10 10 10 10 10 10 10 10 10 10 10 10 10 10 10 10 10 v -10 -10 -10 -10 -10 -10 h -10 -10 -10 -10 v -10 h -10 -10 -10 -10 -10 v -10 h -10 v 10 h -10 v -10 h -10 v 10 h -10 v -10 h -10 v -10 h -10 v -10 h 10 V 180 H 100 V 170 H 90 V 160 H 80 V 150 H 70 V 140 H 80 V 130 H 70 V 120 H 80 V 110 H 70 V 100 H 80 V 90 H 90 V 80 H 80 V 70 H 90 V 60 h 10 v 10 h 10 V 60 h 10 V 50 Z m -10,30 v 10 h 10 V 70 Z m 0,10 h -10 v 10 h 10 z M 100,90 H 90 v 10 h 10 z M 90,100 H 80 v 10 h 10 z m 0,10 v 10 h 10 v -10 z m 0,10 H 80 v 10 h 10 z m 0,10 v 10 h 10 v -10 z m 10,10 v 10 h 10 v -10 z m 10,10 v 10 h 10 v -10 z m 10,10 v 10 h 10 v -10 z m 0,10 h -10 v 10 h 10 z m 0,10 v 10 h 10 v -10 z m 10,10 v 10 h 10 v -10 z m 10,10 v 10 h 10 v -10 z m -10,0 h -10 v 10 h 10 z m -10,0 v -10 h -10 v 10 z m -10,-30 v -10 h -10 v 10 z M 100,160 V 150 H 90 v 10 z M 90,150 V 140 H 80 v 10 z M 100,80 V 70 H 90 v 10 z m 110,140 h 10 10 10 v -10 -10 -10 -10 -10 -10 h -10 -10 -10 v 10 h 10 10 v 10 10 10 10 h -10 -10 z m 0,-60 v -10 h -10 v 10 z m -10,-10 v -10 h 10 10 10 10 10 v -10 h 10 V 120 110 100 90 80 H 250 V 70 h -10 -10 -10 v 10 10 h 10 V 80 h 10 v 10 h 10 v 10 10 10 h -10 v 10 h -10 -10 -10 -10 v -10 h -10 v 10 h -10 -10 -10 -10 v 10 h 10 10 10 10 v 10 z M 170,20 v 10 h 10 V 20 Z m 0,10 h -10 v 10 h 10 z m -10,10 h -10 v 10 h 10 z m -10,10 h -10 v 10 h 10 z m 30,0 v 10 h 10 V 50 Z m 10,10 v 10 h 10 V 60 Z m 10,10 v 10 h 10 V 70 Z m -50,0 v 10 h -10 v 10 h 10 v 10 h 10 V 90 h 10 V 80 H 160 V 70 Z M 90,240 h 10 v 10 h 10 v -10 h 10 v 10 h 10 v -10 h 10 v 10 h 10 v -10 h 10 v 10 h 10 v -10 h 10 10 10 10 10 10 10 v 10 10 10 10 h -10 -10 -10 -10 v -10 h -10 v 10 h -10 v -10 h -10 v 10 h -10 v -10 h -10 v 10 h -10 v -10 h -10 v 10 h -10 v -10 h -10 v 10 H 100 V 270 H 90 v 10 H 80 V 270 H 90 V 260 H 80 v -10 h 10 z m 0,10 v 10 h 10 v -10 z m 10,10 v 10 h 10 v -10 z m 10,0 h 10 v -10 h -10 z m 10,0 v 10 h 10 v -10 z m 10,0 h 10 v -10 h -10 z m 10,0 v 10 h 10 v -10 z m 10,0 h 10 v -10 h -10 z m 10,0 v 10 h 10 v -10 z m 10,0 h 10 v -10 h -10 z m 10,0 v 10 h 10 v -10 z"
     style="opacity:1;shape-rendering:crispEdges"
     id="path2" />
  <path
     d="m 130,10 v 10 h 10 V 10 Z m 10,10 v 10 10 10 h 10 V 40 h 10 V 30 H 150 V 20 Z m 20,10 h 10 V 20 h -10 z m 10,-10 h 10 V 10 h -10 z m 10,0 v 10 10 10 h 10 V 40 30 20 Z m 10,30 v 10 h 10 10 V 50 h -10 z m 20,10 v 10 h 10 10 10 10 V 60 h -10 -10 -10 z m 40,10 v 10 h 10 V 70 Z m 10,10 v 10 10 10 10 10 h 10 V 120 110 100 90 80 Z m 0,50 h -10 v 10 h -10 -10 -10 -10 -10 v 10 h 10 v 10 h 10 10 10 v -10 h 10 10 v -10 z m -20,30 v 10 10 10 10 10 10 h -10 -10 -10 v 10 h 10 10 10 10 v 10 10 10 10 10 10 H 240 230 220 210 200 190 180 170 160 150 140 130 120 110 100 90 80 70 v -10 -10 -10 -10 -10 -10 h 10 10 10 10 V 220 H 100 90 V 210 200 190 180 H 80 v 10 10 10 10 H 70 60 v 10 10 10 10 10 10 10 10 h 10 10 10 10 10 10 10 10 10 10 10 10 10 10 10 10 10 10 10 10 V 290 280 270 260 250 240 230 220 H 250 V 210 200 190 180 170 160 Z M 80,180 V 170 H 70 v 10 z M 70,170 V 160 H 60 v 10 z M 60,160 V 150 140 130 120 110 100 90 80 H 50 v 10 10 10 10 10 10 10 10 z M 60,80 H 70 V 70 60 H 60 V 70 Z M 70,60 H 80 V 50 H 70 Z M 80,50 h 10 10 10 V 40 H 100 90 80 Z m 30,-10 h 10 V 30 h -10 z m 10,-10 h 10 V 20 h -10 z m 80,110 v -10 h -10 v 10 z"
     style="opacity:1;fill:#ffffff;shape-rendering:crispEdges"
     id="path1" />
  <path
     d="m 130,30 v 10 h 10 V 30 Z m 0,10 h -10 v 10 10 h -10 v 10 h 10 v 10 h -10 v 10 h -10 v 10 H 90 v 10 h 10 v 10 H 90 v 10 h 10 v 10 h 10 v 10 h 10 v 10 h 10 v 10 h -10 v 10 h 10 v 10 h 10 v 10 h 10 v 10 h 10 v 10 h 10 10 10 10 10 v -10 h 10 10 v -10 h -10 v -10 h -10 v 10 h -10 v -10 h -10 v -10 h 10 v -10 h -10 v -10 h -10 v 10 h -10 v -10 h -10 v -10 h -10 v -10 -10 h 10 10 10 10 v -10 h 10 v 10 h 10 v -10 h 10 v -10 h -10 v -10 h 10 V 90 80 H 210 200 190 V 70 h -10 v 10 h -10 v 10 h -10 v 10 H 150 V 90 H 140 V 80 h 10 V 70 h 10 V 60 h 10 v 10 h 10 V 60 50 H 170 V 40 H 160 V 50 H 150 V 60 H 140 V 50 h -10 z m 40,0 h 10 V 30 h -10 z m 0,30 h -10 v 10 h 10 z m -10,10 h -10 v 10 h 10 z m 60,20 v 10 h 10 v -10 z m 10,0 h 10 V 90 h -10 z m 10,0 v 10 h 10 v -10 z m 0,10 h -10 v 10 h 10 z m -10,10 h -10 v 10 h 10 z m -70,30 h 10 v -10 h -10 z m 10,0 v 10 h 10 v -10 z m 10,0 h 10 v -10 h -10 z m 10,0 v 10 h 10 v -10 z m 10,10 v 10 h 10 v -10 z m 10,10 v 10 h 10 v -10 z m 10,10 v 10 h 10 v -10 z m -10,0 h -10 v 10 h 10 z m -60,30 h -10 v 10 h 10 z m -10,0 v -10 h -10 v 10 z m -10,0 h -10 v 10 h 10 z m -10,0 v -10 h -10 v 10 z m -10,-10 v -10 h -10 v 10 z m 0,-10 h 10 v -10 h -10 z m 0,-10 v -10 h -10 v 10 z M 100,170 V 160 H 90 v 10 z M 90,160 V 150 H 80 v 10 z M 80,150 V 140 H 70 v 10 z m 0,-10 H 90 V 130 H 80 Z m 0,-10 V 120 H 70 v 10 z m 0,-10 H 90 V 110 H 80 Z m 0,-10 V 100 H 70 v 10 z m 0,-10 H 90 V 90 H 80 Z M 90,90 h 10 V 80 H 90 Z M 90,80 V 70 H 80 v 10 z m 0,-10 h 10 V 60 H 90 Z m 10,0 v 10 h 10 V 70 Z m -10,70 v 10 h 10 v -10 z m 10,10 v 10 h 10 v -10 z m 10,10 v 10 h 10 v -10 z m 10,30 v 10 h 10 v -10 z m -30,50 v 10 h 10 v -10 z m 10,10 v 10 h 10 v -10 z m 10,0 h 10 v -10 h -10 z m 10,0 v 10 h 10 v -10 z m 10,0 h 10 v -10 h -10 z m 10,0 v 10 h 10 v -10 z m 10,0 h 10 v -10 h -10 z m 10,0 v 10 h 10 v -10 z m 10,0 h 10 v 10 h 10 v 10 h 10 v 10 h 10 10 10 10 v -10 -10 -10 -10 h -10 -10 -10 -10 -10 -10 -10 z m 20,20 h -10 v 10 h 10 z m -10,0 v -10 h -10 v 10 z m -10,0 h -10 v 10 h 10 z m -10,0 v -10 h -10 v 10 z m -10,0 h -10 v 10 h 10 z m -10,0 v -10 h -10 v 10 z m -10,0 h -10 v 10 h 10 z m -10,0 v -10 h -10 v 10 z m -10,0 h -10 v 10 h 10 z m -10,0 V 260 H 90 v 10 z m -10,0 H 80 v 10 h 10 z m 0,-10 V 250 H 80 v 10 z"
     style="opacity:1;fill:#313131;shape-rendering:crispEdges"
     id="path3" />
</svg>
