<?xml version="1.0" encoding="UTF-8" standalone="no"?>
<svg
   id="pawn-black"
   width="320"
   height="320"
   viewBox="0 0 320 320"
   preserveAspectRatio="xMidYMid meet"
   rendering="crispEdges"
   version="1.1"
   sodipodi:docname="pawn-black.svg"
   inkscape:version="1.4.2 (f4327f4, 2025-05-13)"
   xmlns:inkscape="http://www.inkscape.org/namespaces/inkscape"
   xmlns:sodipodi="http://sodipodi.sourceforge.net/DTD/sodipodi-0.dtd"
   xmlns="http://www.w3.org/2000/svg"
   xmlns:svg="http://www.w3.org/2000/svg">
  <defs
     id="defs1" />
  <sodipodi:namedview
     id="namedview1"
     pagecolor="#ffffff"
     bordercolor="#000000"
     borderopacity="0.25"
     inkscape:showpageshadow="2"
     inkscape:pageopacity="0.0"
     inkscape:pagecheckerboard="0"
     inkscape:deskcolor="#d1d1d1"
     inkscape:zoom="2.996875"
     inkscape:cx="159.83316"
     inkscape:cy="160"
     inkscape:window-width="1920"
     inkscape:window-height="1051"
     inkscape:window-x="-9"
     inkscape:window-y="-9"
     inkscape:window-maximized="1"
     inkscape:current-layer="pawn-black" />
  <path
     d="m 180,80 v 10 h 10 V 80 Z m 10,10 v 10 h 10 V 90 Z m 10,10 v 10 h 10 v -10 z m 0,10 h -10 v 10 h 10 z m -10,0 v -10 h -10 v 10 z M 180,100 V 90 h -10 v 10 z"
     style="opacity:1;fill:#676767;shape-rendering:crispEdges"
     id="path3" />
  <path
     d="m 150,70 v 10 10 h -10 v 10 h -10 v 10 h 10 v 10 h -10 v 10 h 10 v 10 h -10 v 10 h 10 v 10 h 10 v 10 h 10 10 10 10 v -10 h 10 v -10 h 10 v -10 -10 -10 -10 h -10 v 10 H 190 V 110 H 180 V 100 H 170 V 90 h 10 V 80 H 170 V 70 h -10 z m 30,20 v 10 h 10 V 90 Z m 10,10 v 10 h 10 v -10 z m -50,60 h -10 v 10 h 10 z m -10,0 v -10 h -10 v 10 z m -10,-10 v -10 h -10 v 10 z m 0,-10 h 10 v -10 h -10 z m 0,-10 v -10 h -10 v 10 z m 0,-10 h 10 v -10 h -10 z m 0,-10 v -10 h -10 v 10 z m 0,-10 h 10 V 90 h -10 z m 10,-10 h 10 V 80 h -10 z m 20,90 v 10 h 10 v 10 h -10 v 10 h 10 v 10 h -10 v 10 h 10 v 10 h 10 10 10 10 v -10 h -10 v -10 h -10 v -10 -10 -10 -10 h -10 -10 z m 0,50 h -10 v 10 h 10 z m -10,0 v -10 h -10 v 10 z m -10,0 h -10 v 10 h 10 z m 10,-10 h 10 v -10 h -10 z m 10,-20 v -10 h -10 v 10 z m -60,50 v 10 h 10 v -10 z m 10,10 v 10 h 10 v -10 z m 10,0 h 10 v -10 h -10 z m 10,0 v 10 h 10 v -10 z m 10,0 h 10 v -10 h -10 z m 10,0 v 10 h 10 v -10 z m 10,0 h 10 v -10 h -10 z m 10,0 v 10 h 10 v -10 z m 10,0 h 10 v 10 h 10 10 10 10 10 10 v -10 -10 h -10 -10 -10 -10 -10 -10 -10 z m -80,0 H 80 v 10 h 10 z"
     style="opacity:1;fill:#313131;shape-rendering:crispEdges"
     id="path4" />
  <path
     d="m 150,60 v 10 h 10 10 V 60 h -10 z m 20,10 v 10 h 10 10 V 70 h -10 z m 20,10 v 10 h 10 v 10 h 10 V 90 80 h -10 z m 20,20 v 10 10 10 10 10 h 10 v -10 -10 -10 -10 -10 z m 0,50 h -10 v 10 h 10 z m -10,10 h -10 v 10 h 10 z m -10,10 h -10 -10 -10 -10 v -10 h -10 v 10 h -10 v 10 10 10 10 10 h 10 v -10 h 10 v -10 h -10 v -10 h 10 v -10 h 10 10 10 v 10 10 10 10 h 10 v -10 -10 -10 -10 z m 0,50 v 10 h 10 v -10 z m 10,10 v 10 h -10 -10 -10 -10 v -10 h -10 v 10 h -10 v -10 h -10 v 10 h -10 v -10 h -10 v 10 H 100 90 80 v 10 H 70 v 10 10 10 h 10 10 10 10 10 10 10 10 10 10 10 10 10 10 10 10 10 10 v -10 -10 -10 h -10 v 10 10 h -10 -10 -10 -10 -10 -10 v -10 h -10 v 10 h -10 v -10 h -10 v 10 h -10 v -10 h -10 v 10 h -10 v -10 h -10 v 10 H 100 V 260 H 90 v 10 H 80 v -10 h 10 v -10 h 10 v 10 h 10 v -10 h 10 v 10 h 10 v -10 h 10 v 10 h 10 v -10 h 10 v 10 h 10 v -10 h 10 10 10 10 10 10 10 v -10 h -10 -10 -10 v -10 z m -80,0 h 10 v -10 h -10 z m 20,0 h 10 v -10 h -10 z m 10,-10 h 10 v -10 h -10 z m 0,-30 v 10 h 10 v -10 z m -20,-20 v -10 h -10 v 10 z m -10,-10 v -10 h -10 v 10 z m -10,-10 v -10 h 10 v -10 h -10 v -10 h 10 v -10 h -10 v -10 h -10 v 10 10 10 10 10 z m 0,-50 h 10 V 90 h 10 V 80 h -10 -10 v 10 z m 20,-20 h 10 v 10 h 10 V 80 70 h -10 -10 z m 10,10 h -10 v 10 h 10 z m -10,10 h -10 v 10 h 10 z m 0,10 v 10 h 10 v -10 z m 0,10 h -10 v 10 h 10 z m 0,10 v 10 h 10 v -10 z m 0,10 h -10 v 10 h 10 z m 0,10 v 10 h 10 v -10 z"
     style="opacity:1;shape-rendering:crispEdges"
     id="path2" />
  <path
     d="m 150,50 v 10 h 10 10 V 50 h -10 z m 20,10 v 10 h 10 10 V 60 h -10 z m 20,10 v 10 h 10 10 V 70 h -10 z m 20,10 v 10 10 h 10 V 90 80 Z m 10,20 v 10 10 10 10 10 h 10 v -10 -10 -10 -10 -10 z m 0,50 h -10 v 10 h 10 z m -10,10 h -10 v 10 h 10 z m -10,10 h -10 v 10 10 10 10 10 h 10 v -10 -10 -10 -10 z m 0,50 v 10 h 10 v -10 z m 10,10 v 10 h 10 10 10 v -10 h -10 -10 z m 30,10 v 10 h 10 v -10 z m 10,10 v 10 10 10 H 240 230 220 210 200 190 180 170 160 150 140 130 120 110 100 90 80 70 V 270 260 250 H 60 v 10 10 10 10 h 10 10 10 10 10 10 10 10 10 10 10 10 10 10 10 10 10 10 10 10 V 280 270 260 250 Z M 70,250 H 80 V 240 H 70 Z m 10,-10 h 10 10 10 V 230 H 100 90 80 Z m 30,-10 h 10 v -10 h -10 z m 10,-10 h 10 v -10 -10 -10 -10 -10 h -10 v 10 10 10 10 z m 0,-50 v -10 h -10 v 10 z m -10,-10 v -10 h -10 v 10 z M 100,150 V 140 130 120 110 100 H 90 v 10 10 10 10 10 z m 0,-50 h 10 V 90 80 h -10 v 10 z m 10,-20 h 10 10 V 70 h -10 -10 z m 20,-10 h 10 10 V 60 h -10 -10 z"
     style="opacity:1;fill:#ffffff;shape-rendering:crispEdges"
     id="path1" />
</svg>
