<?xml version="1.0" encoding="UTF-8" standalone="no"?>
<svg
   id="qween-black"
   width="320"
   height="320"
   viewBox="0 0 320 320"
   preserveAspectRatio="xMidYMid meet"
   rendering="crispEdges"
   version="1.1"
   sodipodi:docname="qween-black.svg"
   inkscape:version="1.4.2 (f4327f4, 2025-05-13)"
   xmlns:inkscape="http://www.inkscape.org/namespaces/inkscape"
   xmlns:sodipodi="http://sodipodi.sourceforge.net/DTD/sodipodi-0.dtd"
   xmlns="http://www.w3.org/2000/svg"
   xmlns:svg="http://www.w3.org/2000/svg">
  <defs
     id="defs1" />
  <sodipodi:namedview
     id="namedview1"
     pagecolor="#ffffff"
     bordercolor="#000000"
     borderopacity="0.25"
     inkscape:showpageshadow="2"
     inkscape:pageopacity="0.0"
     inkscape:pagecheckerboard="0"
     inkscape:deskcolor="#d1d1d1"
     inkscape:zoom="2.996875"
     inkscape:cx="160.16684"
     inkscape:cy="160"
     inkscape:window-width="1920"
     inkscape:window-height="1051"
     inkscape:window-x="-9"
     inkscape:window-y="-9"
     inkscape:window-maximized="1"
     inkscape:current-layer="qween-black" />
  <path
     d="m 110,50 v 10 h 10 10 10 V 50 h -10 -10 z m 30,10 v 10 h 10 V 60 Z m 10,10 v 10 10 10 h 10 10 V 90 80 70 h -10 z m 20,0 h 10 V 60 h -10 z m 10,-10 h 10 10 10 V 50 h -10 -10 -10 z m 30,0 v 10 h 10 V 60 Z m 10,10 v 10 10 10 h 10 v 10 10 h 10 V 110 100 90 H 230 V 80 70 Z m 20,20 h 10 V 80 h -10 z m 10,-10 h 10 10 10 V 70 h -10 -10 -10 z m 30,0 v 10 h 10 V 80 Z m 10,10 v 10 10 10 h 10 V 110 100 90 Z m 0,30 h -10 v 10 10 10 h 10 v -10 -10 z m -10,30 h -10 v 10 10 10 10 h 10 v -10 -10 -10 z m -10,40 h -10 v 10 10 10 h 10 v -10 -10 z m -10,30 h -10 v 10 10 10 10 10 10 10 H 240 230 220 210 200 190 180 170 160 150 140 130 120 110 100 90 80 70 V 280 270 260 250 240 230 220 H 60 v 10 10 10 10 10 10 10 10 h 10 10 10 10 10 10 10 10 10 10 10 10 10 10 10 10 10 10 10 10 V 290 280 270 260 250 240 230 Z M 60,220 V 210 200 190 H 50 v 10 10 10 z M 50,190 V 180 170 160 150 H 40 v 10 10 10 10 z M 40,150 V 140 130 120 H 30 v 10 10 10 z M 30,120 V 110 100 90 H 20 v 10 10 10 z M 30,90 H 40 V 80 H 30 Z M 40,80 H 50 60 70 V 70 H 60 50 40 Z m 30,0 V 90 H 80 V 80 Z m 10,10 v 10 10 10 h 10 v -10 -10 h 10 V 90 80 70 H 90 v 10 10 z m 20,-20 h 10 V 60 h -10 z m 0,30 v 10 10 10 10 h 10 v -10 -10 -10 -10 z m 0,40 H 90 80 v 10 h 10 v 10 h 10 v -10 z m -20,0 V 130 120 H 70 v 10 10 z m 160,-20 v 10 10 h 10 v -10 -10 z m 0,20 h -10 -10 v 10 10 h 10 v -10 h 10 z m -20,0 v -10 -10 -10 -10 h -10 v 10 10 10 10 z m -50,-40 v 10 10 10 10 h 10 v -10 -10 -10 -10 z m 0,40 h -10 -10 v 10 10 h 10 10 v -10 z m -20,0 v -10 -10 -10 -10 h -10 v 10 10 10 10 z"
     style="opacity:1;fill:#ffffff;shape-rendering:crispEdges"
     id="path4" />
  <path
     d="m 210,170 v 10 h 10 v -10 z m 10,10 v 10 h 10 v -10 z m 10,0 h 10 v -10 h -10 z m 10,0 v 10 h 10 v -10 z m 0,10 h -10 v 10 h 10 z m 0,10 v 10 h 10 v -10 z m 0,10 h -10 v 10 h 10 z m -10,0 v -10 h -10 v 10 z m -10,0 h -10 v 10 h 10 z m -10,0 v -10 h -10 v 10 z m 0,-10 h 10 v -10 h -10 z m 0,-10 v -10 h -10 v 10 z"
     style="opacity:1;fill:#676767;shape-rendering:crispEdges"
     id="path2" />
  <path
     d="m 110,70 v 10 10 10 h 10 v 10 10 10 10 10 h -10 v 10 10 10 h 10 v 10 h 10 v 10 h 10 v 10 h 10 v 10 h 10 v 10 h 10 10 10 10 10 10 10 10 v -10 h -10 v -10 h -10 v 10 h -10 v -10 h -10 v -10 h 10 v -10 h -10 v -10 h 10 v -10 -10 -10 h -10 v -10 -10 -10 -10 -10 h 10 V 90 80 70 h -10 -10 -10 v 10 10 10 h 10 v 10 10 10 10 10 h -10 v 10 10 h -10 -10 -10 -10 v -10 -10 h -10 v -10 -10 -10 -10 -10 h 10 V 90 80 70 h -10 -10 z m 100,110 v 10 h 10 v -10 z m 10,0 h 10 v -10 h -10 z m 10,-10 h 10 v 10 h 10 v 10 h 10 v -10 -10 -10 -10 h 10 v -10 -10 -10 h 10 V 110 100 90 h -10 -10 -10 v 10 10 10 h 10 v 10 10 h -10 v 10 h -10 v 10 h -10 z m 20,20 h -10 v 10 h 10 z m -10,10 h -10 v 10 h 10 z m 0,10 v 10 h 10 v -10 z m -10,-10 v -10 h -10 v 10 z m -10,0 h -10 v 10 h 10 z m 10,-10 h 10 v -10 h -10 z m -80,30 h -10 v 10 h 10 z m -10,0 v -10 h -10 v 10 z m -10,0 h -10 v 10 h 10 z m -10,0 v -10 h -10 v 10 z m -10,0 h -10 v 10 h 10 z m -10,0 V 210 H 90 v 10 z m -10,0 H 80 v 10 h 10 z m -10,0 V 210 H 70 v 10 z m 0,-10 H 90 V 200 H 80 Z m 0,-10 V 190 H 70 v 10 z M 70,190 V 180 H 60 v 10 z m 0,-10 H 80 V 170 H 70 Z m 0,-10 V 160 H 60 v 10 z m 0,-10 H 80 V 150 H 70 Z m 0,-10 V 140 H 60 v 10 z M 60,140 V 130 H 50 v 10 z m 20,20 v 10 h 10 v -10 z m 10,10 v 10 h 10 v -10 z m 10,10 v 10 h 10 v -10 z m 10,10 v 10 h 10 v -10 z m 10,10 v 10 h 10 v -10 z m -10,0 h -10 v 10 h 10 z m -10,0 V 190 H 90 v 10 z M 90,190 V 180 H 80 v 10 z M 40,90 v 10 H 50 V 90 Z m 10,10 v 10 h 10 v -10 z m 10,0 H 70 V 90 H 60 Z m 0,10 v 10 h 10 v -10 z m -10,0 H 40 v 10 h 10 z m 40,130 v 10 h 10 v -10 z m 10,10 v 10 h 10 v -10 z m 10,0 h 10 v -10 h -10 z m 10,0 v 10 h 10 v -10 z m 10,0 h 10 v -10 h -10 z m 10,0 v 10 h 10 v -10 z m 10,0 h 10 v -10 h -10 z m 10,0 v 10 h 10 v -10 z m 10,0 h 10 v 10 h 10 v 10 h 10 v 10 h 10 10 10 10 v -10 -10 -10 -10 h -10 -10 -10 -10 -10 -10 -10 z m 20,20 h -10 v 10 h 10 z m -10,0 v -10 h -10 v 10 z m -10,0 h -10 v 10 h 10 z m -10,0 v -10 h -10 v 10 z m -10,0 h -10 v 10 h 10 z m -10,0 v -10 h -10 v 10 z m -10,0 h -10 v 10 h 10 z m -10,0 v -10 h -10 v 10 z m -10,0 h -10 v 10 h 10 z m -10,0 V 260 H 90 v 10 z m -10,0 H 80 v 10 h 10 z m 0,-10 V 250 H 80 v 10 z"
     style="opacity:1;fill:#313131;shape-rendering:crispEdges"
     id="path1" />
  <path
     d="m 110,60 v 10 h 10 10 10 V 60 h -10 -10 z m 30,10 v 10 10 10 h 10 V 90 80 70 Z m 0,30 h -10 v 10 10 10 10 10 h 10 v 10 10 h 10 10 10 10 v -10 -10 h 10 v -10 -10 -10 -10 -10 h -10 v 10 10 10 10 h -10 v 10 10 h -10 -10 v -10 -10 h -10 v -10 -10 -10 z m 40,0 V 90 80 70 h -10 v 10 10 10 z m 0,-30 h 10 10 10 V 60 h -10 -10 -10 z m 30,0 v 10 10 10 h 10 V 90 80 70 Z m 0,30 h -10 v 10 10 10 10 10 h 10 v 10 10 h 10 10 v -10 h -10 v -10 -10 h -10 v -10 -10 -10 z m 20,60 h 10 v -10 h -10 z m 10,-10 h 10 v -10 h -10 z m 10,-10 h 10 v -10 -10 h -10 v 10 z m 0,-20 V 110 100 90 h -10 v 10 10 10 z m 0,-30 h 10 10 10 V 80 h -10 -10 -10 z m 30,0 v 10 10 10 h 10 V 110 100 90 Z m 0,30 h -10 v 10 10 10 h 10 v -10 -10 z m -10,30 h -10 v 10 10 10 10 h 10 v -10 -10 -10 z m -10,40 h -10 v 10 10 10 h 10 v -10 -10 z m -10,30 h -10 v 10 h -10 -10 -10 -10 -10 -10 -10 -10 v -10 h -10 v 10 h -10 v -10 h -10 v 10 h -10 v -10 h -10 v 10 H 100 V 220 H 90 v 10 H 80 V 220 H 70 v 10 10 10 10 10 10 10 h 10 10 10 10 10 10 10 10 10 10 10 10 10 10 10 10 10 10 V 280 270 260 250 240 230 Z M 70,220 V 210 H 80 V 200 H 70 V 190 H 60 v 10 10 10 z M 60,190 V 180 H 70 V 170 H 60 V 160 H 70 V 150 H 60 V 140 H 50 v -10 h 10 v 10 H 70 V 130 120 H 60 V 110 H 50 v 10 H 40 v 10 10 10 h 10 v 10 10 10 10 z M 40,120 V 110 H 50 V 100 H 40 V 90 H 30 v 10 10 10 z m 0,-30 h 10 v 10 H 60 V 90 H 70 V 80 H 60 50 40 Z m 30,0 v 10 H 60 v 10 h 10 v 10 H 80 V 110 100 90 Z m 0,50 v 10 h 10 v -10 z m 10,10 v 10 h 10 v -10 z m 10,10 v 10 h 10 v 10 h 10 v -10 -10 -10 h 10 v -10 -10 -10 -10 -10 h -10 v 10 10 10 10 h -10 v 10 10 z m 20,-60 V 90 80 70 h -10 v 10 10 10 z m 0,80 v 10 h 10 v -10 z m 10,10 v 10 h 10 v -10 z m 10,10 v 10 h 10 v -10 z m 10,10 v 10 h 10 v -10 z m -10,0 h -10 v 10 h 10 z m -10,0 v -10 h -10 v 10 z m -10,0 h -10 v 10 h 10 z m -10,0 V 200 H 90 v 10 z m -10,0 H 80 v 10 h 10 z m 0,-10 V 190 H 80 v 10 z M 80,190 V 180 H 70 v 10 z m 0,-10 H 90 V 170 H 80 Z m 0,-10 V 160 H 70 v 10 z m 10,10 v 10 h 10 v -10 z m 10,10 v 10 h 10 v -10 z m -10,50 h 10 v 10 h 10 v -10 h 10 v 10 h 10 v -10 h 10 v 10 h 10 v -10 h 10 v 10 h 10 v -10 h 10 10 10 10 10 10 10 v 10 10 10 10 h -10 -10 -10 -10 v -10 h -10 v 10 h -10 v -10 h -10 v 10 h -10 v -10 h -10 v 10 h -10 v -10 h -10 v 10 h -10 v -10 h -10 v 10 H 100 V 270 H 90 v 10 H 80 V 270 H 90 V 260 H 80 v -10 h 10 z m 0,10 v 10 h 10 v -10 z m 10,10 v 10 h 10 v -10 z m 10,0 h 10 v -10 h -10 z m 10,0 v 10 h 10 v -10 z m 10,0 h 10 v -10 h -10 z m 10,0 v 10 h 10 v -10 z m 10,0 h 10 v -10 h -10 z m 10,0 v 10 h 10 v -10 z m 10,0 h 10 v -10 h -10 z m 10,0 v 10 h 10 v -10 z"
     style="opacity:1;shape-rendering:crispEdges"
     id="path3" />
</svg>
