<?xml version="1.0" encoding="UTF-8" standalone="no"?>
<svg
   id="female-happy"
   width="320"
   height="320"
   viewBox="0 0 320 320"
   preserveAspectRatio="xMidYMid meet"
   rendering="crispEdges"
   version="1.1"
   sodipodi:docname="female-happy.svg"
   inkscape:version="1.4.2 (f4327f4, 2025-05-13)"
   xmlns:inkscape="http://www.inkscape.org/namespaces/inkscape"
   xmlns:sodipodi="http://sodipodi.sourceforge.net/DTD/sodipodi-0.dtd"
   xmlns="http://www.w3.org/2000/svg"
   xmlns:svg="http://www.w3.org/2000/svg">
  <defs
     id="defs1" />
  <sodipodi:namedview
     id="namedview1"
     pagecolor="#ffffff"
     bordercolor="#000000"
     borderopacity="0.25"
     inkscape:showpageshadow="2"
     inkscape:pageopacity="0.0"
     inkscape:pagecheckerboard="0"
     inkscape:deskcolor="#d1d1d1"
     inkscape:zoom="2.996875"
     inkscape:cx="159.83316"
     inkscape:cy="186.69447"
     inkscape:window-width="1920"
     inkscape:window-height="1051"
     inkscape:window-x="-9"
     inkscape:window-y="-9"
     inkscape:window-maximized="1"
     inkscape:current-layer="female-happy" />
  <path
     d="m 150,200 v 10 h 10 v -10 z m 0,10 h -10 v 10 h 10 z m 80,-10 v 10 h 10 v -10 z m 10,10 v 10 h 10 v -10 z"
     style="opacity:1;fill:#a9a9a9;shape-rendering:crispEdges"
     id="path6" />
  <path
     d="m 170,90 v 10 h -10 v 10 h -10 v 10 10 h -10 v 10 10 h -10 v 10 10 h -10 v 10 10 h -10 v 10 10 10 h 10 v 10 10 h 10 v 10 h 10 v 10 h 10 v 10 h 10 10 v 10 h 10 10 10 10 10 v -10 h 10 v -10 h 10 v -10 h 10 v -10 -10 h 10 V 220 210 200 190 180 170 160 150 H 250 V 140 130 H 240 V 120 110 H 230 V 100 H 220 V 90 h -10 -10 -10 -10 z m -20,60 h 10 10 10 v 10 h -10 -10 -10 v 10 h -10 v -10 h 10 z m 60,0 h 10 10 10 v 10 h 10 v 10 h -10 v -10 h -10 -10 -10 z m -50,20 h 10 10 v 10 10 h -10 -10 v -10 z m 50,0 h 10 10 v 10 10 h -10 -10 v 10 h 10 v 10 h -10 v 10 h -10 -10 v -10 h 10 10 v -10 h -10 v -10 h -10 v -10 h 10 v 10 h 10 v -10 z m -60,30 h 10 v 10 h -10 v 10 h -10 v -10 h 10 z m 80,0 h 10 v 10 h 10 v 10 h -10 v -10 h -10 z m -70,30 h 10 v 10 h 10 10 10 10 10 v -10 h 10 v 10 h -10 v 10 h -10 -10 -10 -10 -10 v -10 h -10 z"
     style="opacity:1;fill:#eec39a;shape-rendering:crispEdges"
     id="path7" />
  <path
     d="m 130,40 v 10 h 10 10 10 10 10 10 10 10 10 V 40 h -10 -10 -10 -10 -10 -10 -10 -10 z m 90,10 v 10 h 10 V 50 Z m 10,10 v 10 h 10 V 60 Z m 10,10 v 10 h 10 V 70 Z m 10,10 v 10 h 10 V 80 Z m 10,10 v 10 10 10 h 10 V 110 100 90 Z m 10,30 v 10 10 10 10 10 10 10 10 10 10 10 h 10 v -10 -10 -10 -10 -10 -10 -10 -10 -10 -10 -10 z m 0,110 h -10 v 10 10 h 10 v -10 z m -10,20 h -10 v 10 h 10 z m -10,10 h -10 v 10 h 10 z m -10,10 h -10 v 10 10 h 10 v -10 z m 0,20 v 10 h 10 v -10 z m 10,10 v 10 h 10 v -10 z m 10,10 v 10 h 10 V 310 Z M 130,50 h -10 v 10 h 10 z m -10,10 h -10 v 10 h 10 z m -10,10 h -10 v 10 h 10 z M 100,80 H 90 v 10 h 10 z M 90,90 H 80 v 10 10 H 90 V 100 Z M 80,110 H 70 v 10 10 H 80 V 120 Z M 70,130 H 60 v 10 10 10 10 10 10 10 h 10 v -10 -10 -10 -10 -10 -10 z m 0,70 v 10 10 h 10 v -10 -10 z m 10,20 v 10 10 10 h 10 v -10 -10 -10 z m 10,30 v 10 h 10 v -10 z m 10,10 v 10 10 H 90 v 10 h 10 10 V 280 270 260 Z M 90,290 H 80 70 v 10 H 80 90 Z M 70,300 H 60 v 10 H 70 Z M 60,310 H 50 v 10 h 10 z"
     style="opacity:1;fill:#ffffff;shape-rendering:crispEdges"
     id="path3" />
  <path
     d="m 150,150 v 10 h 10 10 10 v -10 h -10 -10 z m 0,10 h -10 v 10 h 10 z m 60,-10 v 10 h 10 10 10 v -10 h -10 -10 z m 30,10 v 10 h 10 v -10 z m -80,10 v 10 10 h 10 10 v -10 -10 h -10 z m 50,0 v 10 10 h 10 10 v -10 -10 h -10 z m 0,20 h -10 v 10 h 10 z m 0,10 v 10 h 10 v -10 z m 0,10 h -10 -10 v 10 h 10 10 z m -10,-20 v -10 h -10 v 10 z m -40,40 v 10 h 10 v -10 z m 10,10 v 10 h 10 10 10 10 10 v -10 h -10 -10 -10 -10 z m 50,0 h 10 V 230 H 220 Z M 90,290 v 10 H 80 70 v 10 H 60 v 10 h 10 10 10 10 10 10 10 10 10 10 10 10 10 10 10 10 10 10 10 10 v -10 h -10 v -10 h -10 v -10 h -10 -10 v 10 h -10 v 10 h -10 -10 -10 -10 -10 -10 -10 v -10 h -10 v -10 h -10 -10 -10 z"
     style="opacity:1;shape-rendering:crispEdges"
     id="path2" />
  <path
     d="M 130,50 V 60 H 120 V 70 H 110 V 80 H 100 V 90 H 90 v 10 10 H 80 v 10 10 H 70 v 10 10 10 10 10 10 10 h 10 v 10 10 h 10 v 10 10 10 h 10 v 10 h 10 v 10 10 10 h 10 10 v 10 h 10 v 10 h 10 10 10 10 10 10 10 v -10 h 10 v -10 h 10 v -10 -10 h -10 v 10 h -10 -10 -10 -10 -10 v -10 h -10 -10 v -10 h -10 v -10 h -10 v -10 h -10 v -10 -10 h -10 v -10 -10 -10 h 10 v -10 -10 h 10 v -10 -10 h 10 v -10 -10 h 10 v -10 -10 h 10 v -10 h 10 V 90 h 10 10 10 10 10 v 10 h 10 v 10 h 10 v 10 10 h 10 v 10 10 h 10 v 10 10 10 10 10 10 10 10 h 10 V 220 210 200 190 180 170 160 150 140 130 120 H 260 V 110 100 90 H 250 V 80 H 240 V 70 H 230 V 60 H 220 V 50 h -10 -10 -10 -10 -10 -10 -10 -10 z m 130,180 h -10 v 10 10 h 10 v -10 z m -10,20 h -10 v 10 h 10 z m -10,10 h -10 v 10 h 10 z"
     style="opacity:1;fill:#525252;shape-rendering:crispEdges"
     id="path1" />
</svg>
