<?xml version="1.0" encoding="UTF-8" standalone="no"?>
<svg
   id="male-happy"
   width="320"
   height="320"
   viewBox="0 0 320 320"
   preserveAspectRatio="xMidYMid meet"
   rendering="crispEdges"
   version="1.1"
   sodipodi:docname="male-happy.svg"
   inkscape:version="1.4.2 (f4327f4, 2025-05-13)"
   xmlns:inkscape="http://www.inkscape.org/namespaces/inkscape"
   xmlns:sodipodi="http://sodipodi.sourceforge.net/DTD/sodipodi-0.dtd"
   xmlns="http://www.w3.org/2000/svg"
   xmlns:svg="http://www.w3.org/2000/svg">
  <defs
     id="defs1" />
  <sodipodi:namedview
     id="namedview1"
     pagecolor="#ffffff"
     bordercolor="#000000"
     borderopacity="0.25"
     inkscape:showpageshadow="2"
     inkscape:pageopacity="0.0"
     inkscape:pagecheckerboard="0"
     inkscape:deskcolor="#d1d1d1"
     inkscape:zoom="2.996875"
     inkscape:cx="160"
     inkscape:cy="160"
     inkscape:window-width="1920"
     inkscape:window-height="1051"
     inkscape:window-x="-9"
     inkscape:window-y="-9"
     inkscape:window-maximized="1"
     inkscape:current-layer="male-happy" />
  <path
     d="m 100,70 v 10 h 10 V 70 Z m 10,10 v 10 h 10 V 80 Z m 10,0 h 10 V 70 h -10 z m 10,0 v 10 h 10 V 80 Z m 10,0 h 10 V 70 h -10 z m -10,10 h -10 v 10 h 10 z m -10,10 h -10 v 10 h -10 v 10 H 90 v 10 10 h 10 10 v 10 h 10 v -10 -10 h 10 v -10 -10 h -10 z m -20,10 V 100 H 90 v 10 z m 0,-10 h 10 V 90 h -10 z m 0,-10 V 80 H 90 V 90 Z M 240,70 v 10 h 10 V 70 Z m 10,10 v 10 h 10 V 80 Z m 10,0 h 10 V 70 h -10 z m 0,10 v 10 h 10 V 90 Z m 0,20 v 10 10 10 10 h 10 v -10 -10 -10 -10 z"
     style="opacity:1;fill:#3a3a3a;shape-rendering:crispEdges"
     id="path4" />
  <path
     d="M 150,10 V 20 H 140 130 120 V 30 H 110 100 V 40 H 90 V 50 H 80 v 10 10 h 10 v 10 h 10 V 70 h 10 v 10 h 10 V 70 h 10 v 10 h 10 V 70 h 10 v 10 h 10 V 70 h 10 v 10 h 10 V 70 h 10 v 10 h 10 V 70 h 10 v 10 h 10 V 70 h 10 v 10 h 10 V 70 h 10 v 10 h 10 V 70 h 10 10 V 60 50 H 270 V 40 H 260 V 30 H 250 240 V 20 H 230 220 210 V 10 h -10 -10 -10 -10 -10 z m 110,70 v 10 h 10 V 80 Z m 0,10 h -10 v 10 h 10 z m 0,10 v 10 h 10 V 100 Z M 250,90 V 80 H 240 V 90 Z M 150,80 h -10 v 10 h 10 z m -10,10 h -10 v 10 h 10 z m -10,10 h -10 v 10 h 10 z m -10,0 V 90 h -10 v 10 z m -10,0 h -10 v 10 h 10 z m -10,10 H 90 v 10 h 10 z m 0,-10 V 90 H 90 v 10 z m 0,-10 h 10 V 80 h -10 z m 20,0 h 10 V 80 h -10 z m 30,20 v 10 h 10 10 10 v -10 h -10 -10 z m 0,10 h -10 v 10 h 10 z m 0,10 v 10 10 h 10 10 v -10 -10 h -10 z m 60,-20 v 10 h 10 10 10 v -10 h -10 -10 z m 30,10 v 10 h 10 v -10 z m 0,10 h -10 -10 v 10 10 h 10 10 v -10 z m -170,0 v 10 H 80 90 V 130 H 80 Z m 20,10 v 10 h 10 10 v -10 h -10 z m -20,0 H 60 v 10 10 10 10 h 10 v -10 -10 -10 z m 0,40 v 10 h 10 v -10 z m 10,10 v 10 h 10 10 V 190 H 90 Z m 20,10 v 10 10 h 10 v -10 -10 z m 10,20 v 10 10 10 10 10 10 10 H 100 90 80 v 10 H 70 60 v 10 H 50 40 v 10 h 10 10 10 10 10 10 10 10 10 10 10 10 10 10 10 10 10 10 10 10 10 10 10 10 v -10 h -10 -10 v -10 h -10 -10 v -10 h -10 -10 -10 v -10 -10 -10 h 10 10 v -10 h -10 -10 -10 -10 -10 -10 -10 -10 -10 v 10 h 10 10 10 10 10 10 v 10 10 10 h -10 v 10 h -10 v 10 h -10 -10 -10 -10 v -10 h -10 v -10 h -10 v -10 -10 -10 -10 -10 h 10 v -10 h -10 v -10 z m 20,20 v 10 h 10 v -10 z m 100,10 h 10 v -10 h -10 z m 10,-10 h 10 v -10 h -10 z m 10,-10 h 10 v -10 -10 h -10 v 10 z m 10,-20 h 10 v -10 -10 -10 -10 -10 -10 h -10 v 10 10 10 10 10 z m -70,-80 v 10 10 10 h 10 v -10 -10 -10 z m 10,30 v 10 h 10 v -10 z m 10,10 v 10 h -10 -10 v 10 h 10 10 10 V 180 170 Z M 80,160 v 10 h 10 v 10 h 10 V 170 160 H 90 Z m 80,40 v 10 h 10 v -10 z m 10,10 v 10 h 10 10 10 10 10 10 v -10 h -10 -10 -10 -10 -10 z m 60,0 h 10 v -10 h -10 z"
     style="opacity:1;shape-rendering:crispEdges"
     id="path5" />
  <path
     d="m 180,230 v 10 h 10 10 10 v -10 h -10 -10 z m -60,20 v 10 h 10 v -10 z m 10,10 v 10 h 10 v -10 z m 10,10 v 10 h 10 v -10 z m 10,0 h 10 v -10 h -10 z m -10,10 h -10 v 10 h 10 z m 0,10 v 10 h 10 v -10 z m -10,-10 v -10 h -10 v 10 z"
     style="opacity:1;fill:#a9a9a9;shape-rendering:crispEdges"
     id="path3" />
  <path
     d="m 160,70 v 10 h -10 v 10 h -10 v 10 h -10 v 10 10 10 h -10 v 10 10 H 110 100 90 V 140 H 80 70 v 10 10 10 10 h 10 v 10 h 10 10 v 10 h 10 v 10 10 h 10 v 10 h 10 v 10 h 10 v 10 h 10 10 10 10 10 10 10 10 10 v -10 h 10 v -10 h 10 v -10 -10 h 10 V 200 190 180 170 160 150 140 130 120 110 100 H 250 V 90 H 240 V 80 H 230 V 70 H 220 V 80 H 210 V 70 H 200 V 80 H 190 V 70 H 180 V 80 H 170 V 70 Z m -20,180 h -10 v 10 h 10 z m 0,10 v 10 h 10 v -10 z m 10,10 v 10 h -10 v 10 h 10 v 10 h -10 v 10 h 10 10 10 10 v -10 h 10 v -10 h 10 v -10 -10 -10 h -10 -10 -10 -10 v 10 z m -10,30 v -10 h -10 v 10 z m -10,-10 v -10 h -10 v 10 z m 0,-10 h 10 v -10 h -10 z m 0,-10 v -10 h -10 v 10 z m 0,-20 v -10 h -10 v 10 z m 20,-140 h 10 10 10 v 10 h -10 -10 -10 v 10 h 10 10 v 10 10 h -10 -10 v -10 -10 h -10 v -10 h 10 z m 60,0 h 10 10 10 v 10 h 10 v 10 h -10 v 10 10 h -10 -10 v -10 -10 h 10 10 v -10 h -10 -10 -10 z m -20,20 h 10 v 10 10 10 h 10 v 10 h 10 v 10 10 h -10 -10 -10 v -10 h 10 10 V 170 H 200 V 160 H 190 V 150 140 Z M 80,160 h 10 10 v 10 10 H 90 V 170 H 80 Z m 80,40 h 10 v 10 h 10 10 10 10 10 10 v -10 h 10 v 10 h -10 v 10 h -10 -10 -10 -10 -10 -10 v -10 h -10 z m 20,30 h 10 10 10 v 10 h -10 -10 -10 z"
     style="opacity:1;fill:#eec39a;shape-rendering:crispEdges"
     id="path2" />
  <path
     d="m 150,0 v 10 h 10 10 10 10 10 10 V 0 h -10 -10 -10 -10 -10 z m 60,10 v 10 h 10 10 10 V 10 h -10 -10 z m 30,10 v 10 h 10 10 V 20 h -10 z m 20,10 v 10 h 10 V 30 Z m 10,10 v 10 h 10 V 40 Z m 10,10 v 10 10 h 10 V 60 50 Z m 0,20 h -10 v 10 10 10 10 10 10 10 10 10 10 10 10 10 10 h 10 V 200 190 180 170 160 150 140 130 120 110 100 90 80 Z m -10,140 h -10 v 10 10 h 10 v -10 z m -10,20 h -10 v 10 h 10 z m -10,10 h -10 v 10 h 10 z m -10,10 h -10 v 10 h 10 z m -10,10 h -10 -10 v 10 10 10 h 10 10 10 v -10 h -10 -10 v -10 h 10 z m 10,30 v 10 h 10 10 v -10 h -10 z m 20,10 v 10 h 10 10 v -10 h -10 z m 20,10 v 10 h 10 V 310 Z M 150,10 h -10 -10 -10 v 10 h 10 10 10 z m -30,10 h -10 -10 v 10 h 10 10 z M 100,30 H 90 v 10 h 10 z M 90,40 H 80 V 50 H 90 Z M 80,50 H 70 V 60 70 H 80 V 60 Z m 0,20 v 10 10 10 10 10 H 70 v 10 H 80 90 V 120 110 100 90 80 70 Z M 70,130 H 60 v 10 H 70 Z M 60,140 H 50 v 10 10 10 10 h 10 v -10 -10 -10 z m 0,40 v 10 h 10 v -10 z m 10,10 v 10 h 10 v -10 z m 10,10 v 10 h 10 v 10 h 10 V 210 200 H 90 Z m 20,20 v 10 10 10 10 10 10 H 90 80 v 10 h 10 10 10 V 280 270 260 250 240 230 220 Z M 80,290 H 70 60 v 10 H 70 80 Z M 60,300 H 50 40 v 10 H 50 60 Z M 40,310 H 30 v 10 h 10 z"
     style="opacity:1;fill:#ffffff;shape-rendering:crispEdges"
     id="path1" />
</svg>
