<?xml version="1.0" encoding="UTF-8" standalone="no"?>
<svg
   id="robot-normal"
   width="320"
   height="320"
   viewBox="0 0 320 320"
   preserveAspectRatio="xMidYMid meet"
   rendering="crispEdges"
   version="1.1"
   sodipodi:docname="robot-normal.svg"
   inkscape:version="1.4.2 (f4327f4, 2025-05-13)"
   xmlns:inkscape="http://www.inkscape.org/namespaces/inkscape"
   xmlns:sodipodi="http://sodipodi.sourceforge.net/DTD/sodipodi-0.dtd"
   xmlns="http://www.w3.org/2000/svg"
   xmlns:svg="http://www.w3.org/2000/svg">
  <defs
     id="defs1" />
  <sodipodi:namedview
     id="namedview1"
     pagecolor="#ffffff"
     bordercolor="#000000"
     borderopacity="0.25"
     inkscape:showpageshadow="2"
     inkscape:pageopacity="0.0"
     inkscape:pagecheckerboard="0"
     inkscape:deskcolor="#d1d1d1"
     inkscape:zoom="2.996875"
     inkscape:cx="160"
     inkscape:cy="160"
     inkscape:window-width="1920"
     inkscape:window-height="1051"
     inkscape:window-x="-9"
     inkscape:window-y="-9"
     inkscape:window-maximized="1"
     inkscape:current-layer="robot-normal" />
  <path
     d="m 120,90 v 10 10 h 10 v -10 h 10 V 90 h -10 z m 40,20 v 10 h 10 v -10 z m 10,10 v 10 h 10 v -10 z m 0,10 h -10 v 10 h 10 z m -10,0 v -10 h -10 v 10 z m 60,-20 v 10 h 10 v -10 z m 10,10 v 10 h 10 v -10 z m 0,10 h -10 v 10 h 10 z m -10,0 v -10 h -10 v 10 z m -50,30 v 10 h 10 10 10 10 10 v -10 h -10 -10 -10 -10 z"
     style="opacity:1;fill:#ffffff;shape-rendering:crispEdges"
     id="path2" />
  <path
     d="m 130,10 v 10 10 10 10 h 10 10 V 60 H 140 130 120 110 100 90 80 70 60 50 40 30 v 10 10 10 10 10 10 10 10 10 10 10 10 10 10 10 10 h 10 10 10 10 10 10 v 10 H 80 70 60 50 40 30 20 10 v 10 10 10 10 10 10 10 10 H 20 30 V 300 H 40 V 290 H 30 V 280 H 40 V 270 H 30 v -10 h 10 10 10 10 v 10 10 10 10 10 h 10 10 10 v -10 -10 -10 -10 -10 -10 -10 h 10 10 10 10 10 10 10 10 10 10 10 10 10 10 10 10 10 10 10 10 v 10 10 10 10 10 10 10 h 10 v -10 -10 -10 -10 -10 -10 -10 -10 h -10 -10 -10 -10 -10 -10 -10 -10 -10 -10 -10 -10 -10 v -10 h 10 10 10 10 10 10 10 10 10 10 10 V 210 200 190 180 170 160 150 140 130 120 110 100 90 80 70 60 H 280 270 260 250 240 230 220 210 200 190 180 170 V 50 h 10 10 V 40 30 20 10 H 180 170 160 150 140 Z M 40,280 v 10 h 10 v -10 z m 10,0 H 60 V 270 H 50 Z m 0,10 v 10 h 10 v -10 z m 0,10 H 40 v 10 H 50 Z M 150,20 h 10 V 30 H 150 V 40 H 140 V 30 h 10 z m -50,50 h 10 10 10 10 10 10 10 10 10 10 10 10 10 10 10 10 10 10 v 10 10 10 10 10 10 10 10 10 10 10 10 10 10 H 270 260 250 240 230 220 210 200 190 180 170 160 150 140 130 120 110 100 V 200 190 180 170 160 150 140 130 120 110 100 90 80 Z M 40,80 h 10 v 10 h 10 v 10 H 50 v 10 h 10 v 10 h 10 v 10 H 60 v 10 h 10 v 10 H 60 v 10 h 10 v 10 h 10 v 10 h 10 v 10 H 80 v 10 h 10 v 10 H 80 V 200 H 70 v 10 H 60 V 200 H 50 v 10 H 40 V 200 H 50 V 190 H 40 V 180 H 50 V 170 H 40 V 160 H 50 V 150 H 40 V 140 H 50 V 130 H 40 V 120 H 50 V 110 H 40 V 100 H 50 V 90 H 40 Z m 10,40 v 10 h 10 v -10 z m 0,20 v 10 h 10 v -10 z m 0,20 v 10 h 10 v -10 z m 10,10 v 10 h 10 v -10 z m 10,10 v 10 h 10 v -10 z m 0,10 H 60 v 10 h 10 z m -10,0 V 180 H 50 v 10 z M 110,80 v 10 10 10 10 10 10 10 10 10 10 10 10 h 10 10 10 10 10 10 10 10 10 10 10 10 10 10 10 10 V 190 180 170 160 150 140 130 120 110 100 90 80 h -10 -10 -10 -10 -10 -10 -10 -10 -10 -10 -10 -10 -10 -10 -10 z m 10,10 h 10 10 v 10 h -10 v 10 h -10 v -10 z m 40,20 h 10 v 10 h 10 v 10 h -10 v 10 h -10 v -10 h -10 v -10 h 10 z m 0,10 v 10 h 10 v -10 z m 60,-10 h 10 v 10 h 10 v 10 h -10 v 10 h -10 v -10 h -10 v -10 h 10 z m 0,10 v 10 h 10 v -10 z m -50,40 h 10 10 10 10 10 v 10 h -10 -10 -10 -10 -10 z m -60,90 v 10 10 h 10 10 v -10 -10 h -10 z m 160,0 v 10 10 h 10 10 v -10 -10 h -10 z"
     style="opacity:1;shape-rendering:crispEdges"
     id="path4" />
  <path
     d="m 150,20 v 10 h 10 V 20 Z m 0,10 h -10 v 10 h 10 z m -50,40 v 10 10 10 10 10 10 10 10 10 10 10 10 10 10 h 10 10 10 10 10 10 10 10 10 10 10 10 10 10 10 10 10 10 V 200 190 180 170 160 150 140 130 120 110 100 90 80 70 H 270 260 250 240 230 220 210 200 190 180 170 160 150 140 130 120 110 Z M 40,80 V 90 H 50 V 80 Z m 10,10 v 10 H 60 V 90 Z m 0,10 H 40 v 10 h 10 z m 0,10 v 10 h 10 v -10 z m 10,10 v 10 h 10 v -10 z m 0,10 H 50 v 10 h 10 z m 0,10 v 10 h 10 v -10 z m 0,10 H 50 v 10 h 10 z m 0,10 v 10 h 10 v -10 z m 10,10 v 10 h 10 v -10 z m 10,10 v 10 h 10 v -10 z m 0,10 H 70 v 10 h 10 z m 0,10 v 10 h 10 v -10 z m -10,0 H 60 v 10 h 10 z m -10,0 V 190 H 50 v 10 z m -10,0 H 40 v 10 h 10 z m 0,-10 V 180 H 40 v 10 z m 0,-10 H 60 V 170 H 50 Z m 0,-10 V 160 H 40 v 10 z m 10,10 v 10 H 70 V 180 Z M 50,150 V 140 H 40 v 10 z m 0,-20 V 120 H 40 v 10 z m 60,-50 h 10 10 10 10 10 10 10 10 10 10 10 10 10 10 10 10 v 10 10 10 10 10 10 10 10 10 10 10 10 H 260 250 240 230 220 210 200 190 180 170 160 150 140 130 120 110 V 190 180 170 160 150 140 130 120 110 100 90 Z m -10,160 v 10 10 10 10 10 10 10 h 10 10 10 10 10 10 10 10 10 10 10 10 10 10 10 10 10 10 10 10 v -10 -10 -10 -10 -10 -10 -10 h -10 -10 -10 -10 -10 -10 -10 -10 -10 -10 -10 -10 -10 -10 -10 -10 -10 -10 -10 z m 10,10 h 10 10 v 10 10 h -10 -10 v -10 z m 160,0 h 10 10 v 10 10 H 280 270 V 260 Z M 30,260 v 10 h 10 v 10 h 10 v -10 h 10 v 10 H 50 v 10 h 10 v 10 H 50 v 10 H 60 70 V 300 290 280 270 260 H 60 50 40 Z m 20,40 V 290 H 40 v 10 z m -10,0 H 30 v 10 h 10 z m 0,-10 V 280 H 30 v 10 z"
     style="opacity:1;fill:#a9a9a9;shape-rendering:crispEdges"
     id="path3" />
  <path
     d="M 120,0 V 10 20 30 40 50 H 110 100 90 80 70 60 50 40 30 20 v 10 10 10 10 10 10 10 10 10 10 10 10 10 10 10 10 10 H 10 0 v 10 10 10 10 10 10 10 10 10 10 h 10 10 10 10 10 10 10 10 10 10 10 10 10 10 10 10 10 10 10 10 10 10 10 10 10 10 10 10 10 10 10 10 V 310 300 290 280 270 260 250 240 230 220 H 310 300 V 210 200 190 180 170 160 150 140 130 120 110 100 90 80 70 60 50 H 290 280 270 260 250 240 230 220 210 200 V 40 30 20 10 0 h -10 -10 -10 -10 -10 -10 -10 z m 10,10 h 10 10 10 10 10 10 v 10 10 10 10 h -10 -10 v 10 h 10 10 10 10 10 10 10 10 10 10 10 10 v 10 10 10 10 10 10 10 10 10 10 10 10 10 10 10 10 h -10 -10 -10 -10 -10 -10 -10 -10 -10 -10 -10 v 10 h 10 10 10 10 10 10 10 10 10 10 10 10 10 v 10 10 10 10 10 10 10 10 H 300 290 280 270 260 250 240 230 220 210 200 190 180 170 160 150 140 130 120 110 100 90 80 70 60 50 40 30 20 10 V 300 290 280 270 260 250 240 230 H 20 30 40 50 60 70 80 90 V 220 H 80 70 60 50 40 30 V 210 200 190 180 170 160 150 140 130 120 110 100 90 80 70 60 h 10 10 10 10 10 10 10 10 10 10 10 10 V 50 H 140 130 V 40 30 20 Z"
     style="opacity:1;fill:#ff0000;shape-rendering:crispEdges"
     id="path1" />
</svg>
